# xmcd CD database file
#
# Track frame offsets:
#	150
#	16046
#	28571
#	45569
#	61256
#	73811
#	91388
#	105679
#	119021
#	133191
#	145887
#	157754
#	172683
#	185009
#	197874
#
# Disc length: 2814 seconds
#
# Revision: 3
# Processed by: cddbd v1.5.2PL0 Copyright (c) Steve Scherf et al.
# Submitted via: CDex 1.50
#
DISCID=cb0afc0f
DTITLE=Blaskapelle Keramicka - Folge 3
DYEAR=1995
DGENRE=Blasmusik
TTITLE0=Chef Polka
TTITLE1=Abendwalzer
TTITLE2=Trompetenspaﬂ
TTITLE3=Zpivampolka
TTITLE4=Barytonreigen
TTITLE5=Vierer-Walzer
TTITLE6=Klekanipolka
TTITLE7=Freundliche Gedanken
TTITLE8=Stimmungspolka
TTITLE9=Trompetenklang-L‰ndler
TTITLE10=Basissistenlaune
TTITLE11=Dravantkapolka
TTITLE12=Dreier-Klarinettenl‰ndler
TTITLE13=Trendpolka
TTITLE14=Die Lerche
EXTD=YEAR: 1995
EXTT0=
EXTT1=
EXTT2=
EXTT3=
EXTT4=
EXTT5=
EXTT6=
EXTT7=
EXTT8=
EXTT9=
EXTT10=
EXTT11=
EXTT12=
EXTT13=
EXTT14=
PLAYORDER=
